<?xml version="1.0" encoding="utf-8"?>
<!-- Generator: Adobe Illustrator 19.0.1, SVG Export Plug-In . SVG Version: 6.00 Build 0)  -->
<svg version="1.1" id="Layer_1" xmlns="http://www.w3.org/2000/svg" xmlns:xlink="http://www.w3.org/1999/xlink" x="0px" y="0px"
	 viewBox="-67 19 64 64" fill="#12FFCC" style="enable-background:new -67 19 64 64;" xml:space="preserve">
<g>
	<g>
		<path d="M-43,81c0,1.1-0.9,2-2,2h-12c-1.1,0-2-0.9-2-2V21c0-1.1,0.9-2,2-2h12c1.1,0,2,0.9,2,2V81z"/>
	</g>
	<g>
		<path d="M-11,81c0,1.1-0.9,2-2,2h-12c-1.1,0-2-0.9-2-2V21c0-1.1,0.9-2,2-2h12c1.1,0,2,0.9,2,2V81z"/>
	</g>
</g>
</svg>
