<?xml version="1.0" encoding="iso-8859-1"?>
<!-- Generator: Adobe Illustrator 17.1.0, SVG Export Plug-In . SVG Version: 6.00 Build 0)  -->
<!DOCTYPE svg PUBLIC "-//W3C//DTD SVG 1.1//EN" "http://www.w3.org/Graphics/SVG/1.1/DTD/svg11.dtd">
<svg version="1.1" id="Capa_1" xmlns="http://www.w3.org/2000/svg" xmlns:xlink="http://www.w3.org/1999/xlink" x="0px" y="0px"
	 viewBox="0 0 293.476 293.476" style="enable-background:new 0 0 293.476 293.476;" fill="#12FFCC" xml:space="preserve">
<path d="M154.674,7.937c-30.771,0-59.922,9.863-84.301,28.524c-23.589,18.056-41.052,43.652-49.172,72.072
	c-0.679,2.374-1.274,4.783-1.827,7.204H0l35.002,58.012l36.03-58.012H52.46C66,71.029,107.779,39.937,154.674,39.937
	c58.891,0,106.802,47.91,106.802,106.801s-47.911,106.801-106.802,106.801c-30.477,0-59.581-13.076-79.85-35.875l-23.916,21.262
	c26.337,29.623,64.157,46.613,103.766,46.613c76.535,0,138.802-62.266,138.802-138.801S231.209,7.937,154.674,7.937z"/>
<g>
</g>
<g>
</g>
<g>
</g>
<g>
</g>
<g>
</g>
<g>
</g>
<g>
</g>
<g>
</g>
<g>
</g>
<g>
</g>
<g>
</g>
<g>
</g>
<g>
</g>
<g>
</g>
<g>
</g>
</svg>
