<?xml version="1.0" encoding="utf-8"?>
<!-- Generator: Adobe Illustrator 19.0.1, SVG Export Plug-In . SVG Version: 6.00 Build 0)  -->
<svg version="1.1" id="Layer_1" xmlns="http://www.w3.org/2000/svg" xmlns:xlink="http://www.w3.org/1999/xlink" x="0px" y="0px"
	 viewBox="-67 19 64 64" fill="#12FFCC" style="enable-background:new -67 19 64 64;" xml:space="preserve">
<path d="M-59,35c-4.4,0-8,3.6-8,8v16c0,4.4,3.6,8,8,8h4l20,16V59V43V19l-20,16H-59z"/>
<path d="M-18,34c9.4,9.4,9.4,24.6,0,34l5.7,5.7c12.5-12.5,12.5-32.8,0-45.3L-18,34z"/>
<path d="M-30.5,42.5c4.7,4.7,4.7,12.3,0,17l5.7,5.7c7.8-7.8,7.8-20.5,0-28.3L-30.5,42.5z"/>
</svg>
